<?xml version="1.0" encoding="iso-8859-1"?>
<!-- Generator: Adobe Illustrator 18.0.0, SVG Export Plug-In . SVG Version: 6.00 Build 0)  -->
<!DOCTYPE svg PUBLIC "-//W3C//DTD SVG 1.1//EN" "http://www.w3.org/Graphics/SVG/1.1/DTD/svg11.dtd">
<svg version="1.1" id="Capa_1" xmlns="http://www.w3.org/2000/svg" xmlns:xlink="http://www.w3.org/1999/xlink" x="0px" y="0px"
	 viewBox="0 0 20 20" style="enable-background:new 0 0 20 20;" xml:space="preserve">
<g id="_x33__6_">
	<g>
		<path style="fill-rule:evenodd;clip-rule:evenodd;" d="M2,4h16c1.104,0,2-0.895,2-2c0-1.105-0.895-2-2-2H2C0.895,0,0,0.895,0,2
			C0,3.105,0.895,4,2,4z M18,8H2c-1.105,0-2,0.895-2,2c0,1.105,0.895,2,2,2h16c1.104,0,2-0.895,2-2C20,8.895,19.105,8,18,8z M18,16
			H2c-1.105,0-2,0.895-2,2c0,1.105,0.895,2,2,2h16c1.104,0,2-0.895,2-2C20,16.895,19.105,16,18,16z"/>
	</g>
</g>
<g>
</g>
<g>
</g>
<g>
</g>
<g>
</g>
<g>
</g>
<g>
</g>
<g>
</g>
<g>
</g>
<g>
</g>
<g>
</g>
<g>
</g>
<g>
</g>
<g>
</g>
<g>
</g>
<g>
</g>
</svg>
